<svg width="900" height="760" viewBox="0 0 900 760" fill="none" xmlns="http://www.w3.org/2000/svg">
  <rect width="900" height="760" fill="#F9FCF8"/>
  <ellipse cx="450" cy="684" rx="312" ry="28" fill="#BFD8C5" fill-opacity="0.55"/>
  <rect x="126" y="328" width="490" height="184" rx="26" fill="#155B31"/>
  <rect x="176" y="228" width="250" height="146" rx="24" fill="#155B31"/>
  <rect x="634" y="368" width="132" height="124" rx="24" fill="#155B31"/>
  <rect x="160" y="350" width="204" height="114" rx="18" fill="#FCFBF8"/>
  <rect x="384" y="350" width="206" height="114" rx="18" fill="#FCFBF8"/>
  <rect x="655" y="392" width="88" height="76" rx="14" fill="#FCFBF8"/>
  <rect x="126" y="486" width="640" height="26" fill="#0B321C"/>
  <path d="M126 328C126 313.641 137.641 302 152 302H592C606.359 302 618 313.641 618 328V344H126V328Z" fill="#0B321C"/>
  <path d="M628 384C628 369.641 639.641 358 654 358H760C774.359 358 786 369.641 786 384V398H628V384Z" fill="#0B321C"/>
  <rect x="210" y="257" width="178" height="56" rx="28" fill="#FCFBF8"/>
  <path d="M236 285H362" stroke="#D64032" stroke-width="7" stroke-linecap="round"/>
  <path d="M236 268H362" stroke="#155B31" stroke-width="7" stroke-linecap="round"/>
  <circle cx="276" cy="552" r="52" fill="#0B321C"/>
  <circle cx="276" cy="552" r="25" fill="#FCFBF8"/>
  <circle cx="662" cy="552" r="52" fill="#0B321C"/>
  <circle cx="662" cy="552" r="25" fill="#FCFBF8"/>
  <rect x="486" y="260" width="166" height="18" rx="9" fill="#D64032"/>
  <rect x="534" y="224" width="72" height="56" rx="16" fill="#F1DBB7"/>
  <rect x="118" y="512" width="668" height="16" rx="8" fill="#D8E8DB" fill-opacity="0.9"/>
  <rect x="92" y="144" width="250" height="112" rx="56" fill="#F4E7D2"/>
  <circle cx="168" cy="198" r="36" fill="#E9D1AC"/>
  <circle cx="242" cy="198" r="36" fill="#E9D1AC"/>
  <circle cx="205" cy="198" r="22" fill="#FCFBF8"/>
  <path d="M96 202H330" stroke="#D64032" stroke-width="8" stroke-linecap="round"/>
  <g opacity="0.9">
    <rect x="634" y="220" width="132" height="88" rx="22" fill="#FCFBF8"/>
    <path d="M664 264H735" stroke="#155B31" stroke-width="8" stroke-linecap="round"/>
    <path d="M665 244H736" stroke="#D64032" stroke-width="8" stroke-linecap="round"/>
  </g>
</svg>
