<svg xmlns="http://www.w3.org/2000/svg" width="960" height="960" viewBox="0 0 33 33" shape-rendering="crispEdges">
  <defs>
    <radialGradient id="donut-hole" cx="50%" cy="45%" r="65%">
      <stop offset="0%" stop-color="#fffdfa" />
      <stop offset="65%" stop-color="#fff4df" />
      <stop offset="100%" stop-color="#edd5a7" />
    </radialGradient>
    <linearGradient id="donut-glaze" x1="0%" y1="0%" x2="100%" y2="100%">
      <stop offset="0%" stop-color="#ffe2ad" />
      <stop offset="45%" stop-color="#dca05c" />
      <stop offset="100%" stop-color="#b96b2f" />
    </linearGradient>
  </defs>
  <path fill="#FFFFFF" d="M0 0h33v33H0z" />
  <path
    stroke="#0f5131"
    d="M2 2.5h7m2 0h1m1 0h1m4 0h1m1 0h3m1 0h7M2 3.5h1m5 0h1m2 0h1m1 0h2m2 0h1m2 0h1m3 0h1m5 0h1M2 4.5h1m1 0h3m1 0h1m1 0h1m1 0h2m2 0h1m1 0h1m3 0h1m1 0h1m1 0h3m1 0h1M2 5.5h1m1 0h3m1 0h1m1 0h3m2 0h2m2 0h1m1 0h1m2 0h1m1 0h3m1 0h1M2 6.5h1m1 0h3m1 0h1m1 0h1m1 0h1m3 0h1m2 0h4m1 0h1m1 0h3m1 0h1M2 7.5h1m5 0h1m1 0h1m2 0h1m3 0h1m1 0h1m2 0h1m1 0h1m5 0h1M2 8.5h7m1 0h1m1 0h1m1 0h1m1 0h1m1 0h1m1 0h1m1 0h7M10 9.5h5m2 0h2m1 0h1m1 0h1M2 10.5h1m1 0h5m4 0h4m2 0h1m1 0h1m2 0h5M2 11.5h2m2 0h1m2 0h1m2 0h1m3 0h1m1 0h1m1 0h2m1 0h4m3 0h1M2 12.5h7m4 0h2m2 0h2m3 0h2m1 0h2M4 13.5h1m1 0h2m2 0h1m1 0h1m1 0h1m2 0h2m1 0h3m1 0h2m1 0h1m1 0h1M2 14.5h1m1 0h1m2 0h2m5 0h1m2 0h1m1 0h1m7 0h2M4 15.5h3m6 0h1m1 0h1m2 0h7m1 0h1m3 0h1M3 16.5h1m1 0h2m1 0h1m1 0h1m3 0h5m1 0h1m2 0h1m2 0h3M2 17.5h1m1 0h1m1 0h1m2 0h5m1 0h1m5 0h2m2 0h2m2 0h1M4 18.5h1m2 0h3m4 0h1m1 0h2m1 0h1m1 0h1m5 0h2M2 19.5h2m6 0h2m6 0h5m1 0h3m1 0h1m1 0h1M2 20.5h1m1 0h1m3 0h2m1 0h2m4 0h1m1 0h1m2 0h1m2 0h1m2 0h1M2 21.5h1m1 0h1m2 0h1m1 0h2m3 0h1m1 0h1m3 0h1m2 0h1m5 0h1M2 22.5h1m1 0h1m1 0h3m2 0h1m1 0h1m3 0h3m1 0h6m1 0h3M10 23.5h1m1 0h5m1 0h1m1 0h1m1 0h1m3 0h5M2 24.5h7m2 0h3m1 0h5m1 0h2m1 0h1m1 0h3M2 25.5h1m5 0h1m1 0h1m1 0h4m1 0h2m2 0h2m3 0h1m3 0h1M2 26.5h1m1 0h3m1 0h1m1 0h3m3 0h2m1 0h2m1 0h5m1 0h1M2 27.5h1m1 0h3m1 0h1m1 0h1m3 0h1m3 0h3m1 0h1m4 0h4M2 28.5h1m1 0h3m1 0h1m1 0h1m2 0h2m2 0h1m1 0h1m3 0h7M2 29.5h1m5 0h1m2 0h3m1 0h1m2 0h1m1 0h3m2 0h1m1 0h1m1 0h1M2 30.5h7m1 0h4m3 0h3m1 0h1m6 0h1"
  />
  <circle cx="16.5" cy="16.5" r="4.3" fill="#ffffff" />
  <circle cx="16.5" cy="16.5" r="4.05" fill="#fff9ef" stroke="#f0dfc4" stroke-width="0.18" />
  <ellipse cx="16.5" cy="18.15" rx="2.8" ry="0.82" fill="#9a592d" opacity="0.16" />
  <ellipse cx="16.5" cy="16.45" rx="3.95" ry="3" fill="url(#donut-glaze)" />
  <ellipse cx="16.5" cy="16.03" rx="3.72" ry="2.72" fill="#f7cf95" opacity="0.7" />
  <ellipse cx="16.5" cy="16.28" rx="1.72" ry="1.22" fill="url(#donut-hole)" />
  <ellipse cx="15.05" cy="14.72" rx="1.55" ry="0.78" fill="#fff7e8" opacity="0.64" />
  <ellipse cx="18.15" cy="15.25" rx="0.9" ry="0.42" fill="#fff8ea" opacity="0.28" />
  <ellipse cx="18.45" cy="16.88" rx="1.12" ry="0.5" fill="#fff0cf" opacity="0.36" />
</svg>
